<svg xmlns="http://www.w3.org/2000/svg" viewBox="0 0 102 125"><defs><style>.cls-1{fill:#fff;}.cls-2{fill:none;}</style></defs><title>資產 10</title><g id="圖層_2" data-name="圖層 2"><g id="圖層_1-2" data-name="圖層 1"><path class="cls-1" d="M94.68,71.22a1.88,1.88,0,0,0-2.1-1.64c-4,.51-13.3,3.67-11.93,22.08.73,9.9-1.32,12.19-4.63,14.28.66-7.49-3.26-15.6-8.49-22.73A40.68,40.68,0,0,0,88.66,47.53a37.82,37.82,0,0,0-4.23-17.61L86.27,8.71A2.78,2.78,0,0,0,83,5.66l-17.42,7a45.17,45.17,0,0,0-35.2,0L13,5.66A2.78,2.78,0,0,0,9.69,8.71l1.84,21.21A37.82,37.82,0,0,0,7.3,47.53,40.69,40.69,0,0,0,28.68,83.35c-8.44,11.76-13.24,26.19.35,36H67.89a20.1,20.1,0,0,0,6.82-8.18c.69-.46,1.38-.89,2.05-1.29,5.22-3.12,8.57-6.09,7.65-18.53-.8-10.85,2.26-17.26,8.64-18A1.89,1.89,0,0,0,94.68,71.22Z"/><rect class="cls-2" width="102" height="125"/></g></g></svg>