<svg xmlns="http://www.w3.org/2000/svg" viewBox="0 0 102 125"><defs><style>.cls-1{fill:#fff;}.cls-2{fill:none;}</style></defs><title>資產 8</title><g id="圖層_2" data-name="圖層 2"><g id="圖層_1-2" data-name="圖層 1"><path class="cls-1" d="M90.33,10.33a3.87,3.87,0,0,0-5.5-2.8c-7.4,3.76-22.2,13-29.52,29.6a54,54,0,0,0-2.86,8.27c-.75-1.91-1.59-3.82-2.55-5.7C40.8,21.89,24.25,11,16.13,6.52a3.75,3.75,0,0,0-5.56,2.84c-1.11,9.22-2,29,7.1,46.81,6.75,13.22,17.61,22.61,26.08,28.42a2.73,2.73,0,0,0,.5.4c4.53,3,6.79,23.4,3.77,34h9.06c0-13.71-3.44-28.8,2.85-34.71C67.8,79.85,80.41,70.88,87,56,94.46,39.05,92,19.27,90.33,10.33Z"/><rect class="cls-2" width="102" height="125"/></g></g></svg>